<svg xmlns="http://www.w3.org/2000/svg" viewBox="0 0 34.48 39.8"><defs><style>.cls-1{fill:#fff;}.cls-2{fill:#3375bb;}</style></defs><g id="Layer_2" data-name="Layer 2"><g id="Layer_1-2" data-name="Layer 1"><g id="logo_solid_white" data-name="logo solid white"><path id="path0_fill" data-name="path0 fill" class="cls-1" d="M17.23,1.5C23.6,6.43,30.9,6.13,33,6.13c-.46,28-3.93,24.31-15.75,32.17C5.41,30.44,2,34.17,1.51,6.13,3.57,6.13,10.87,6.43,17.23,1.5Z"/><path id="path1_stroke" data-name="path1 stroke" class="cls-2" d="M17.23,1.5,18.15.31a1.53,1.53,0,0,0-1.84,0ZM33,6.13l1.5,0A1.49,1.49,0,0,0,33,4.63h0ZM17.23,38.3l-.83,1.25a1.48,1.48,0,0,0,1.66,0ZM1.51,6.13V4.63A1.51,1.51,0,0,0,0,6.13v0Zm14.8-3.44C23.13,8,30.93,7.63,33,7.63v-3c-2.12,0-8.92.26-14.83-4.32ZM31.48,6.1a120.16,120.16,0,0,1-1,15.55c-.56,3.61-1.36,5.77-2.39,7.29a11.84,11.84,0,0,1-4.28,3.67c-1.95,1.17-4.41,2.43-7.44,4.44l1.66,2.5c2.88-1.92,5.29-3.14,7.33-4.36a15.94,15.94,0,0,0,5.22-4.57c1.38-2,2.27-4.68,2.86-8.51a121.62,121.62,0,0,0,1-16ZM18.06,37.05c-3-2-5.49-3.27-7.44-4.44a11.8,11.8,0,0,1-4.27-3.67c-1-1.52-1.82-3.67-2.37-7.29A119.78,119.78,0,0,1,3,6.1L0,6.15a123.41,123.41,0,0,0,1,16c.59,3.82,1.48,6.48,2.86,8.51a15.8,15.8,0,0,0,5.21,4.57c2,1.22,4.44,2.44,7.32,4.36ZM1.5,7.63c2,0,9.83.34,16.65-4.94L16.31.31C10.4,4.89,3.6,4.63,1.5,4.63Z"/></g></g></g></svg>