<svg xmlns="http://www.w3.org/2000/svg" viewBox="0 0 533.19 138.94"><defs><style>.cls-1{fill:#406bb4;}.cls-2{fill:#39c0f0;}</style></defs><g id="Layer_2" data-name="Layer 2"><g id="Layer_1-2" data-name="Layer 1"><path class="cls-1" d="M69.41,71.16q.11,17-7.18,26.81Q52,111.38,29,111.17q-12.46-.11-24.92-1a3.55,3.55,0,0,1-2.11-1A2.89,2.89,0,0,1,1,107.05,610.51,610.51,0,0,1,1,37.28a3,3,0,0,1,1-2.12,3,3,0,0,1,2.11-.95Q16.52,33.27,29,33.16,50.93,33,61.38,45.4,69.41,55.12,69.41,71.16Zm-44.23,15h3.48a21.78,21.78,0,0,0,7.86-1.21,9.19,9.19,0,0,0,4.6-3.54,14.71,14.71,0,0,0,2-4.7,25.84,25.84,0,0,0,.53-5.54,40.44,40.44,0,0,0-.21-4.48,14.14,14.14,0,0,0-1.11-4,9.19,9.19,0,0,0-2.43-3.43,12.41,12.41,0,0,0-4.38-2.22,23,23,0,0,0-6.86-.9H25.18Q25.08,71.16,25.18,86.15Z"/><path class="cls-2" d="M50.47,36A4.72,4.72,0,0,1,47,33.37a5,5,0,0,1-.15-4.22,49.12,49.12,0,0,1,19.3-22.1Q83.26-3.34,105.46,1.59q23.94,5.34,35.31,19.7a35,35,0,0,1,7.16,30Q146,61.61,114.16,81.1,107,85.33,99.25,89.61T87.13,96.2c-2.9,1.54-4.27,2.26-4.13,2.17q23.41,5.22,47,9.56a4.3,4.3,0,0,1,3.2,2,4.64,4.64,0,0,1,.66,3.61q-2.92,10.64-5.84,21.28a4.77,4.77,0,0,1-2.35,3.2,5.82,5.82,0,0,1-3.84.88,606.93,606.93,0,0,1-92.8-20.67,5.5,5.5,0,0,1-3-2.4,5.65,5.65,0,0,1-.86-3.92q1.13-6.68,2.42-13.3a4,4,0,0,1,2.54-3.26Q50.52,83.13,92.62,56.81q10.26-6.81,12.07-15,2.49-12-8.26-14.4-9.2-2.06-13.65,10.61a4.67,4.67,0,0,1-2.26,2.78,5,5,0,0,1-3.57.48Q63.74,38.55,50.47,36Z"/><path class="cls-1" d="M166.38,42.78q-11.73.69-23.49,1.94l1.2,11.21q10-1.07,20-1.9a3.16,3.16,0,0,1,2.4.7,3,3,0,0,1,1.18,2.09l1.5,14a3.28,3.28,0,0,1-2.91,3.6q-9.94,1.29-19.92,2.35l1,9.52q11.77-1.24,23.37-3a2.71,2.71,0,0,1,2.32.54,3,3,0,0,1,1.13,2q.51,7,1,13.94a3.77,3.77,0,0,1-.82,2.36,3.41,3.41,0,0,1-2.07,1.35,232.74,232.74,0,0,1-45.5,4.85,3.36,3.36,0,0,1-2.31-.89,3.18,3.18,0,0,1-1.19-2.14q-5.52-36.81-7.89-74a3.17,3.17,0,0,1,.72-2.34,3.42,3.42,0,0,1,2.06-1.36,233.53,233.53,0,0,1,45.51-4.85,3.44,3.44,0,0,1,2.3.89,3.72,3.72,0,0,1,1.3,2.13q1,6.93,1.92,13.74a2.88,2.88,0,0,1-.67,2.22A2.7,2.7,0,0,1,166.38,42.78Z"/><path class="cls-2" d="M254,85.62q10.68-.11,21.46-.54a2.63,2.63,0,0,1,2.16.75,2.83,2.83,0,0,1,.86,2q-.1,6.69-.43,13.37a3.06,3.06,0,0,1-.92,2.16,3.86,3.86,0,0,1-2.21,1.19,224,224,0,0,1-42.7,0,3.86,3.86,0,0,1-2.22-1.19,3,3,0,0,1-.91-2.16q-1.51-35.58,0-71.17a3.08,3.08,0,0,1,.91-2.16,3.32,3.32,0,0,1,2.22-1.08q9.38-1,18.76-1.08a2.74,2.74,0,0,1,2,.92,3.13,3.13,0,0,1,.86,2.21Q254,57.36,254,85.62Z"/><path class="cls-2" d="M324.62,24.9q23.07.11,34,13.37,8.42,10.47,8.3,27.61.11,17-8.3,27.5-10.89,13.28-34,13.37-22.87-.1-33.87-13.37-8.52-10.56-8.41-27.5-.1-17,8.41-27.61Q301.76,25,324.62,24.9Zm0,60a15.13,15.13,0,0,0,6.14-1.13,10.36,10.36,0,0,0,4-2.86A13.42,13.42,0,0,0,337,76.5a25.79,25.79,0,0,0,1.13-5.06,51.4,51.4,0,0,0,.27-5.61,51.4,51.4,0,0,0-.27-5.61A25.72,25.72,0,0,0,337,55.15a13.53,13.53,0,0,0-2.27-4.37,10.36,10.36,0,0,0-4-2.86,17.27,17.27,0,0,0-12.29,0,10.89,10.89,0,0,0-4,2.86,12.29,12.29,0,0,0-2.27,4.37,27.77,27.77,0,0,0-1.08,5.07,51.4,51.4,0,0,0-.27,5.61,51.4,51.4,0,0,0,.27,5.61,29.17,29.17,0,0,0,1.08,5.12,11.72,11.72,0,0,0,2.27,4.37,11.27,11.27,0,0,0,4,2.8A15.21,15.21,0,0,0,324.62,84.86Z"/><path class="cls-2" d="M445.08,62.54q.21,5.07.11,9.7-.1,6.69-.43,15.43c.07.07,0,.5-.22,1.29a14.19,14.19,0,0,1-1.72,3.4A19.9,19.9,0,0,1,439,96.62q-11.12,9.38-26.85,9.49-23.29.11-34.41-13.37-8.52-10.47-8.41-27.61-.11-16.93,8.41-27.5,10.91-13.38,33.33-13.27,17.36.11,29.33,11.32a2.92,2.92,0,0,1,1,2.11,2.71,2.71,0,0,1-.81,2.1q-4.86,5.18-10,10.57a3.28,3.28,0,0,1-2.27.86,3.09,3.09,0,0,1-2.26-1,17.1,17.1,0,0,0-12.73-5.5A19.3,19.3,0,0,0,405,46.47a11.44,11.44,0,0,0-5.13,4.58,20.89,20.89,0,0,0-2.42,6.31,36.77,36.77,0,0,0-.71,7.55q0,21.57,15.54,21.57,8.51,0,10.78-3.56V78.39h-8.74a3.15,3.15,0,0,1-2.15-.75,2.59,2.59,0,0,1-.87-2q.1-6.69.33-13.38a3.27,3.27,0,0,1,.91-2.21,3.18,3.18,0,0,1,2.11-1.13,124.8,124.8,0,0,1,27.39.22,3.79,3.79,0,0,1,2.1,1.18A3.22,3.22,0,0,1,445.08,62.54Z"/><path class="cls-2" d="M490.91,24.9q23.08.11,34,13.37,8.42,10.47,8.31,27.61.1,17-8.31,27.5-10.89,13.28-34,13.37-22.86-.1-33.86-13.37-8.52-10.56-8.41-27.5-.12-17,8.41-27.61Q468,25,490.91,24.9Zm0,60a15.18,15.18,0,0,0,6.15-1.13,10.44,10.44,0,0,0,4-2.86,13.41,13.41,0,0,0,2.26-4.37,25.14,25.14,0,0,0,1.14-5.06,51.4,51.4,0,0,0,.27-5.61,51.4,51.4,0,0,0-.27-5.61,25.08,25.08,0,0,0-1.14-5.07,13.52,13.52,0,0,0-2.26-4.37,10.44,10.44,0,0,0-4-2.86,17.27,17.27,0,0,0-12.29,0,10.93,10.93,0,0,0-4,2.86,12.28,12.28,0,0,0-2.26,4.37,27.77,27.77,0,0,0-1.08,5.07,51.4,51.4,0,0,0-.27,5.61,51.4,51.4,0,0,0,.27,5.61,29.17,29.17,0,0,0,1.08,5.12,11.71,11.71,0,0,0,2.26,4.37,11.31,11.31,0,0,0,4,2.8A15.13,15.13,0,0,0,490.91,84.86Z"/></g></g></svg>