<svg width="28" height="23" viewBox="0 0 28 23" fill="none" xmlns="http://www.w3.org/2000/svg">
<g clip-path="url(#clip0_0_13)">
<path d="M25.0592 5.78258C25.0762 6.02723 25.0762 6.27189 25.0762 6.5188C25.0762 14.0423 19.3407 22.7191 8.85312 22.7191V22.7146C5.75506 22.7191 2.72135 21.833 0.113281 20.1621C0.563765 20.2162 1.01651 20.2433 1.47038 20.2444C4.0378 20.2466 6.53183 19.3864 8.55167 17.8023C6.11183 17.7561 3.97231 16.1675 3.22489 13.8484C4.07957 14.013 4.96022 13.9791 5.79909 13.7503C3.13909 13.2136 1.22538 10.8798 1.22538 8.16939V8.09723C2.01796 8.53806 2.90538 8.78272 3.81312 8.80978C1.3078 7.13777 0.535539 3.80954 2.04844 1.20738C4.94328 4.76449 9.21441 6.92694 13.7994 7.15581C13.3399 5.17826 13.9676 3.10601 15.4489 1.71586C17.7454 -0.439826 21.3572 -0.329336 23.5159 1.96277C24.7928 1.71135 26.0167 1.24346 27.1367 0.580517C26.711 1.89851 25.8202 3.01807 24.6302 3.72949C25.7604 3.59645 26.8646 3.29429 27.9044 2.83316C27.1389 3.97865 26.1747 4.97645 25.0592 5.78258Z" fill="#A9A3F5"/>
</g>
<defs>
<clipPath id="clip0_0_13">
<rect width="28" height="23" fill="white"/>
</clipPath>
</defs>
</svg>
