<svg xmlns="http://www.w3.org/2000/svg" width="21" height="18" viewBox="0 0 21 18" fill="none">
<path fill-rule="evenodd" clip-rule="evenodd" d="M15.7609 17.1509C16.0276 17.3426 16.3777 17.3843 16.686 17.2759C16.9944 17.1592 17.2194 16.8925 17.2861 16.5758C18.0112 13.1672 19.7697 4.54958 20.4281 1.45759C20.4781 1.22423 20.3948 0.982541 20.2114 0.824191C20.028 0.665841 19.778 0.62417 19.553 0.707512C16.0526 1.99931 5.29317 6.04141 0.892703 7.66658C0.617674 7.76659 0.434321 8.04162 0.442656 8.33331C0.45099 8.62501 0.651011 8.88337 0.934374 8.96671C2.90958 9.55844 5.49319 10.3752 5.49319 10.3752C5.49319 10.3752 6.70165 14.0339 7.33505 15.8924C7.41839 16.1258 7.59341 16.3092 7.8351 16.3758C8.07679 16.4425 8.33515 16.3758 8.51017 16.2008C9.52695 15.2424 11.0938 13.7672 11.0938 13.7672C11.0938 13.7672 14.0774 15.9508 15.7609 17.1509ZM6.58497 9.91681L7.98512 14.534L8.29348 11.6087C8.29348 11.6087 13.7024 6.73315 16.786 3.94952C16.8777 3.86618 16.8861 3.73283 16.811 3.63282C16.736 3.54114 16.6027 3.51614 16.4943 3.58281C12.9273 5.86639 6.58497 9.91681 6.58497 9.91681Z" fill="#b0a4f4"/>
</svg>