<svg width="27" height="27" viewBox="0 0 27 27" fill="none" xmlns="http://www.w3.org/2000/svg">
<path d="M13.501 0C9.83457 0 9.37444 0.0160315 7.93443 0.0815628C6.49722 0.147375 5.51621 0.374906 4.65783 0.70875C3.76991 1.05356 3.01672 1.51481 2.26634 2.26547C1.51539 3.01584 1.05414 3.76903 0.708195 4.65666C0.373504 5.51531 0.145689 6.49659 0.0810009 7.93322C0.0168752 9.37322 0 9.83362 0 13.5C0 17.1664 0.0163129 17.6251 0.0815636 19.0651C0.147658 20.5023 0.375192 21.4833 0.708757 22.3417C1.05385 23.2296 1.51511 23.9827 2.26577 24.7331C3.01588 25.4841 3.76907 25.9464 4.65642 26.2913C5.51537 26.6251 6.49666 26.8526 7.93358 26.9184C9.3736 26.984 9.83345 27 13.4996 27C17.1663 27 17.625 26.984 19.065 26.9184C20.5022 26.8526 21.4843 26.6251 22.3433 26.2913C23.2309 25.9464 23.983 25.4841 24.7331 24.7331C25.484 23.9827 25.9453 23.2296 26.2912 22.3419C26.6231 21.4833 26.8509 20.502 26.9184 19.0654C26.9831 17.6254 27 17.1664 27 13.5C27 9.83362 26.9831 9.3735 26.9184 7.9335C26.8509 6.49631 26.6231 5.51531 26.2912 4.65694C25.9453 3.76903 25.484 3.01584 24.7331 2.26547C23.9822 1.51453 23.2312 1.05328 22.3425 0.70875C21.4818 0.374906 20.5002 0.147375 19.063 0.0815628C17.623 0.0160315 17.1646 0 13.497 0H13.501ZM12.2899 2.43281C12.6494 2.43225 13.0504 2.43281 13.501 2.43281C17.1055 2.43281 17.5327 2.44575 18.9562 2.51044C20.2724 2.57063 20.9868 2.79056 21.4627 2.97534C22.0927 3.22003 22.5419 3.51253 23.0141 3.98503C23.4866 4.45753 23.7791 4.90753 24.0243 5.53753C24.2091 6.01284 24.4293 6.72722 24.4893 8.04347C24.5539 9.46659 24.568 9.89409 24.568 13.4969C24.568 17.0997 24.5539 17.5272 24.4893 18.9503C24.4291 20.2666 24.2091 20.981 24.0243 21.4563C23.7797 22.0863 23.4866 22.5349 23.0141 23.0071C22.5416 23.4796 22.093 23.7721 21.4627 24.0168C20.9874 24.2024 20.2724 24.4218 18.9562 24.482C17.533 24.5467 17.1055 24.5607 13.501 24.5607C9.89616 24.5607 9.46894 24.5467 8.0458 24.482C6.72954 24.4212 6.01516 24.2013 5.539 24.0165C4.90899 23.7718 4.45898 23.4793 3.98648 23.0068C3.51397 22.5343 3.22147 22.0854 2.97622 21.4552C2.79144 20.9798 2.57121 20.2655 2.51131 18.9492C2.44662 17.5261 2.43368 17.0986 2.43368 13.4935C2.43368 9.88847 2.44662 9.46322 2.51131 8.04009C2.5715 6.72384 2.79144 6.00947 2.97622 5.53359C3.22091 4.90359 3.51397 4.45359 3.98648 3.98109C4.45898 3.50859 4.90899 3.21609 5.539 2.97084C6.01487 2.78522 6.72954 2.56584 8.0458 2.50538C9.29119 2.44913 9.77382 2.43225 12.2899 2.42944V2.43281ZM20.7072 4.67437C20.3868 4.67437 20.0736 4.7694 19.8072 4.94743C19.5407 5.12547 19.3331 5.37851 19.2105 5.67456C19.0879 5.97061 19.0558 6.29636 19.1184 6.61063C19.181 6.92489 19.3353 7.21355 19.5619 7.44009C19.7885 7.66663 20.0773 7.82087 20.3915 7.88332C20.7058 7.94576 21.0316 7.9136 21.3276 7.7909C21.6236 7.6682 21.8766 7.46047 22.0545 7.19399C22.2325 6.92751 22.3274 6.61424 22.3273 6.29381C22.3273 5.39944 21.6016 4.67381 20.7072 4.67381V4.67437ZM13.501 6.56719C9.67229 6.56719 6.5681 9.67134 6.5681 13.5C6.5681 17.3287 9.67229 20.4314 13.501 20.4314C17.3297 20.4314 20.433 17.3287 20.433 13.5C20.433 9.67134 17.3297 6.56719 13.501 6.56719ZM13.501 9C15.9861 9 18.001 11.0146 18.001 13.5C18.001 15.9851 15.9861 18 13.501 18C11.0156 18 9.00094 15.9851 9.00094 13.5C9.00094 11.0146 11.0156 9 13.501 9Z" fill="#A9A3F5"/>
</svg>
