<svg width="32" height="24" viewBox="0 0 32 24" fill="none" xmlns="http://www.w3.org/2000/svg">
<path d="M26.6548 1.98946C24.6483 1.06848 22.4957 0.390084 20.2459 0.0015106C20.2051 -0.00564545 20.1643 0.0129602 20.1428 0.0501716C19.8659 0.542507 19.5596 1.1844 19.3449 1.68962C16.9247 1.32753 14.5167 1.32753 12.1467 1.68962C11.932 1.17367 11.6142 0.542507 11.3359 0.0501716C11.3144 0.0136758 11.2736 -0.00492984 11.2328 0.0015106C8.98368 0.388653 6.83186 1.06705 4.82387 1.98946C4.8067 1.99662 4.79167 2.0095 4.78165 2.02596C0.699844 8.12434 -0.418645 14.0732 0.130223 19.9476C0.13237 19.9762 0.148829 20.0041 0.171013 20.0213C2.86383 21.9992 5.47293 23.2 8.03336 23.9957C8.07415 24.0079 8.1178 23.9936 8.14356 23.9592C8.74896 23.132 9.28924 22.2604 9.75224 21.343C9.77943 21.2893 9.75367 21.2256 9.69785 21.2042C8.84128 20.8793 8.0262 20.4835 7.2419 20.0334C7.17964 19.9969 7.17463 19.9082 7.23188 19.866C7.39719 19.7422 7.56178 19.6134 7.71992 19.4838C7.74855 19.4602 7.78791 19.4552 7.82154 19.4702C12.9746 21.8232 18.5535 21.8232 23.6457 19.4702C23.6793 19.4538 23.7187 19.4588 23.7487 19.4824C23.9062 19.6127 24.0715 19.7422 24.2375 19.866C24.2948 19.9082 24.2912 19.9969 24.2289 20.0334C23.4446 20.4921 22.6288 20.8793 21.7715 21.2027C21.7157 21.2242 21.6907 21.2886 21.7179 21.343C22.1909 22.259 22.7304 23.1306 23.3251 23.9578C23.3502 23.9929 23.3945 24.0079 23.4353 23.995C26.0079 23.1993 28.617 21.9985 31.3098 20.0205C31.3334 20.0034 31.3485 19.9769 31.3506 19.9483C32.0068 13.1565 30.2507 7.25702 26.6956 2.02667C26.687 2.0095 26.672 1.99662 26.6548 1.98946ZM10.5215 16.3702C8.97008 16.3702 7.69201 14.9462 7.69201 13.1965C7.69201 11.4469 8.94575 10.0228 10.5215 10.0228C12.1102 10.0228 13.3761 11.4598 13.351 13.1965C13.3517 14.9455 12.098 16.3702 10.5215 16.3702ZM20.9844 16.3702C19.4329 16.3702 18.1549 14.9462 18.1549 13.1965C18.1549 11.4469 19.4086 10.0228 20.9844 10.0228C22.573 10.0228 23.8389 11.4598 23.8139 13.1965C23.8139 14.9455 22.573 16.3702 20.9844 16.3702Z" fill="#A9A3F5"/>
</svg>
