<svg width="33" height="24" viewBox="0 0 33 24" fill="none" xmlns="http://www.w3.org/2000/svg">
<path fill-rule="evenodd" clip-rule="evenodd" d="M29.4117 0.734118C30.8252 1.12941 31.9397 2.28706 32.3203 3.75529C33.027 6.43765 32.9999 12.0282 32.9999 12.0282C32.9999 12.0282 32.9999 17.5906 32.3203 20.2729C31.9397 21.7412 30.8252 22.8988 29.4117 23.2941C26.8294 24 16.4999 24 16.4999 24C16.4999 24 6.19767 24 3.58812 23.2659C2.17462 22.8706 1.06013 21.7129 0.679569 20.2447C0 17.5906 0 12 0 12C0 12 0 6.43765 0.679569 3.75529C1.06013 2.28706 2.2018 1.10118 3.58812 0.705882C6.17048 0 16.4999 0 16.4999 0C16.4999 0 26.8294 0 29.4117 0.734118ZM21.8006 12L13.2108 17.1388V6.86118L21.8006 12Z" fill="#A9A3F5"/>
</svg>
